<?xml version="1.0" encoding="UTF-8" standalone="no"?>
<!-- Created with Inkscape (http://www.inkscape.org/) -->

<svg
   xmlns:dc="http://purl.org/dc/elements/1.1/"
   xmlns:cc="http://creativecommons.org/ns#"
   xmlns:rdf="http://www.w3.org/1999/02/22-rdf-syntax-ns#"
   xmlns:svg="http://www.w3.org/2000/svg"
   xmlns="http://www.w3.org/2000/svg"
   xmlns:sodipodi="http://sodipodi.sourceforge.net/DTD/sodipodi-0.dtd"
   xmlns:inkscape="http://www.inkscape.org/namespaces/inkscape"
   width="123.73107mm"
   height="195.98828mm"
   viewBox="0 0 438.41718 694.44666"
   id="svg5294"
   version="1.1"
   inkscape:version="0.91 r13725"
   sodipodi:docname="blackcat.svg">
  <defs
     id="defs5296" />
  <sodipodi:namedview
     id="base"
     pagecolor="#ffffff"
     bordercolor="#666666"
     borderopacity="1.0"
     inkscape:pageopacity="0.0"
     inkscape:pageshadow="2"
     inkscape:zoom="0.71"
     inkscape:cx="376.63854"
     inkscape:cy="361.21089"
     inkscape:document-units="px"
     inkscape:current-layer="layer1"
     showgrid="false"
     inkscape:window-width="1440"
     inkscape:window-height="807"
     inkscape:window-x="182"
     inkscape:window-y="0"
     inkscape:window-maximized="0"
     fit-margin-top="0"
     fit-margin-left="0"
     fit-margin-right="0"
     fit-margin-bottom="0" />
  <metadata
     id="metadata5299">
    <rdf:RDF>
      <cc:Work
         rdf:about="">
        <dc:format>image/svg+xml</dc:format>
        <dc:type
           rdf:resource="http://purl.org/dc/dcmitype/StillImage" />
        <dc:title></dc:title>
      </cc:Work>
    </rdf:RDF>
  </metadata>
  <g
     inkscape:label="Layer 1"
     inkscape:groupmode="layer"
     id="layer1"
     transform="translate(679.07696,-210.54812)">
    <path
       style="fill:#000000;fill-rule:evenodd;stroke:#000000;stroke-width:1px;stroke-linecap:butt;stroke-linejoin:miter;stroke-opacity:1"
       d="m -278.86701,441.22921 c -1e-5,111.24592 -73.52743,191.47508 -183.05418,185.91133 -122.5166,-6.22361 -240.89285,-80.97765 -212.36453,-187.63547 29.50461,-110.30787 101.33224,-181.3801 195.12315,-168.66996 126.1495,17.09524 200.29557,59.14817 200.29556,170.3941 z"
       id="path5842"
       inkscape:connector-curvature="0"
       sodipodi:nodetypes="sssss" />
    <path
       style="fill:#000000;fill-rule:evenodd;stroke:#000000;stroke-width:1px;stroke-linecap:butt;stroke-linejoin:miter;stroke-opacity:1"
       d="m -562.9064,325.71196 42.85714,-114.28571 c 44.62333,41.90476 29.88563,83.80952 37.14286,125.71428 z"
       id="path5844"
       inkscape:connector-curvature="0"
       sodipodi:nodetypes="cccc" />
    <path
       style="fill:#000000;fill-rule:evenodd;stroke:#000000;stroke-width:1px;stroke-linecap:butt;stroke-linejoin:miter;stroke-opacity:1"
       d="m -415.41872,325.6627 71.42857,-85.71429 c 19.71312,61.03268 2.38583,79.73346 -8.57142,105.71429 z"
       id="path5846"
       inkscape:connector-curvature="0"
       sodipodi:nodetypes="cccc" />
    <ellipse
       style="fill:#ffff00;fill-rule:evenodd;stroke:#000000;stroke-width:1px;stroke-linecap:butt;stroke-linejoin:miter;stroke-opacity:1"
       id="path5848"
       cx="-494.66251"
       cy="457.35617"
       rx="50"
       ry="18.571428"
       transform="matrix(0.98832455,0.1523633,-0.1523633,0.98832455,0,0)" />
    <ellipse
       transform="matrix(0.98832455,0.1523633,-0.1523633,0.98832455,0,0)"
       ry="18.571428"
       rx="50"
       cy="455.56833"
       cx="-333.04797"
       id="ellipse5850"
       style="fill:#ffff00;fill-rule:evenodd;stroke:#000000;stroke-width:1px;stroke-linecap:butt;stroke-linejoin:miter;stroke-opacity:1" />
    <circle
       style="fill:#000000;fill-rule:evenodd;stroke:#000000;stroke-width:1px;stroke-linecap:butt;stroke-linejoin:miter;stroke-opacity:1"
       id="path5852"
       cx="-541.42853"
       cy="379.50504"
       r="15.714286" />
    <circle
       r="15.714286"
       cy="402.36218"
       cx="-375.71423"
       id="circle5854"
       style="fill:#000000;fill-rule:evenodd;stroke:#000000;stroke-width:1px;stroke-linecap:butt;stroke-linejoin:miter;stroke-opacity:1" />
    <path
       id="path5862"
       style="fill:none;fill-opacity:1;fill-rule:evenodd;stroke:#ff6600;stroke-width:3;stroke-linecap:butt;stroke-linejoin:miter;stroke-miterlimit:4;stroke-dasharray:none;stroke-opacity:1"
       d="m -501.06383,525.76646 c 8.15603,13.83867 16.31206,19.48676 24.46809,19.14894 M -494.28571,472.3622 -500,526.64792 c -12.5503,7.55533 -24.72256,17.37891 -40,8.57143"
       inkscape:connector-curvature="0"
       sodipodi:nodetypes="ccccc" />
    <ellipse
       style="fill:#ffaaaa;fill-rule:evenodd;stroke:#000000;stroke-width:1px;stroke-linecap:butt;stroke-linejoin:miter;stroke-opacity:1"
       id="path5858"
       cx="-399.94897"
       cy="550.93896"
       rx="27.142857"
       ry="17.142857"
       transform="matrix(0.98244206,0.18656797,-0.18656797,0.98244206,0,0)" />
    <g
       id="g5872">
      <path
         inkscape:connector-curvature="0"
         id="path5866"
         d="m -405.31915,490.66008 86.17021,-1.06383"
         style="fill:none;fill-rule:evenodd;stroke:#ffffff;stroke-width:3;stroke-linecap:butt;stroke-linejoin:miter;stroke-miterlimit:4;stroke-dasharray:none;stroke-opacity:1" />
      <path
         style="fill:none;fill-rule:evenodd;stroke:#ffffff;stroke-width:3;stroke-linecap:butt;stroke-linejoin:miter;stroke-miterlimit:4;stroke-dasharray:none;stroke-opacity:1"
         d="m -406.21571,505.44714 85.83567,7.65993"
         id="path5868"
         inkscape:connector-curvature="0" />
      <path
         inkscape:connector-curvature="0"
         id="path5870"
         d="m -408.3644,515.0812 83.75007,20.30671"
         style="fill:none;fill-rule:evenodd;stroke:#ffffff;stroke-width:3;stroke-linecap:butt;stroke-linejoin:miter;stroke-miterlimit:4;stroke-dasharray:none;stroke-opacity:1" />
    </g>
    <g
       id="g5877"
       transform="matrix(-0.98749476,-0.15765183,-0.15765183,0.98749476,-883.99469,-74.36899)">
      <path
         style="fill:none;fill-rule:evenodd;stroke:#ffffff;stroke-width:3;stroke-linecap:butt;stroke-linejoin:miter;stroke-miterlimit:4;stroke-dasharray:none;stroke-opacity:1"
         d="m -405.31915,490.66008 86.17021,-1.06383"
         id="path5879"
         inkscape:connector-curvature="0" />
      <path
         inkscape:connector-curvature="0"
         id="path5881"
         d="m -406.21571,505.44714 85.83567,7.65993"
         style="fill:none;fill-rule:evenodd;stroke:#ffffff;stroke-width:3;stroke-linecap:butt;stroke-linejoin:miter;stroke-miterlimit:4;stroke-dasharray:none;stroke-opacity:1" />
      <path
         style="fill:none;fill-rule:evenodd;stroke:#ffffff;stroke-width:3;stroke-linecap:butt;stroke-linejoin:miter;stroke-miterlimit:4;stroke-dasharray:none;stroke-opacity:1"
         d="m -408.3644,515.0812 83.75007,20.30671"
         id="path5883"
         inkscape:connector-curvature="0" />
    </g>
    <path
       style="fill:#000000;fill-rule:evenodd;stroke:#000000;stroke-width:1px;stroke-linecap:butt;stroke-linejoin:miter;stroke-opacity:1"
       d="m -534.48276,600.63807 c -0.59964,8.09595 -60.78561,131.65467 -60.34482,196.55173 0.44951,66.18032 126.95027,55.12539 184.48275,22.41378 47.49675,-27.00553 -31.03448,-205.17241 -31.03448,-205.17241 z"
       id="path5886"
       inkscape:connector-curvature="0"
       sodipodi:nodetypes="csscc" />
    <path
       style="opacity:1;fill:#000000;fill-opacity:1;stroke:none;stroke-width:2.30290675;stroke-linecap:round;stroke-linejoin:miter;stroke-miterlimit:4;stroke-dasharray:none;stroke-opacity:1"
       d="m -622.31975,610.16589 c 29.29884,8.08041 92.70043,50.43476 92.70042,31.60406 l -16.70362,42.44382 c 0,0 -73.12746,-10.9259 -87.52801,-40.22474 -5.25425,-10.69012 0.0483,-36.99003 11.53121,-33.82314 z"
       id="rect5888"
       inkscape:connector-curvature="0"
       sodipodi:nodetypes="sccss" />
    <path
       sodipodi:nodetypes="cssc"
       inkscape:connector-curvature="0"
       id="path5891"
       d="m -449.72131,709.39637 c 0,0 -60.66175,42.27473 -91.24972,30.86535 -11.16048,-4.16289 -25.3662,-26.92249 -14.84416,-32.50577 26.84721,-14.24578 102.02103,-26.99526 89.08985,-40.68394"
       style="opacity:1;fill:#000000;fill-opacity:1;stroke:#ffffff;stroke-width:2.30290675;stroke-linecap:round;stroke-linejoin:miter;stroke-miterlimit:4;stroke-dasharray:none;stroke-opacity:1"
       inkscape:transform-center-x="-17.241379"
       inkscape:transform-center-y="-62.068966" />
    <path
       style="opacity:1;fill:#000000;fill-opacity:1;stroke:none;stroke-width:3;stroke-linecap:round;stroke-linejoin:miter;stroke-miterlimit:4;stroke-dasharray:none;stroke-opacity:1"
       d="m -477.58619,798.91394 55.17241,0 c 0,0 22.35107,72.47651 0,94.82758 -13.00426,13.00426 -42.16815,13.00426 -55.17241,0 -22.35107,-22.35107 0,-94.82758 0,-94.82758 z"
       id="rect5893"
       inkscape:connector-curvature="0"
       sodipodi:nodetypes="ccssc" />
    <path
       sodipodi:nodetypes="ccssc"
       inkscape:connector-curvature="0"
       id="path5896"
       d="m -574.13791,795.46567 55.17241,0 c 0,0 22.35107,72.47651 0,94.82758 -13.00426,13.00426 -42.16815,13.00426 -55.17241,0 -22.35107,-22.35107 0,-94.82758 0,-94.82758 z"
       style="opacity:1;fill:#000000;fill-opacity:1;stroke:none;stroke-width:3;stroke-linecap:round;stroke-linejoin:miter;stroke-miterlimit:4;stroke-dasharray:none;stroke-opacity:1" />
    <path
       style="fill:#000000;fill-rule:evenodd;stroke:#000000;stroke-width:1px;stroke-linecap:butt;stroke-linejoin:miter;stroke-opacity:1"
       d="m -412.06897,804.08634 c 0,0 47.2388,23.34081 82.90432,18.33414 37.72622,-5.29595 80.99574,-29.12379 87.78534,-66.61 1.76222,-9.72943 -7.46018,-22.69042 -17.24138,-24.13793 -34.45536,-5.09901 -49.2359,73.24822 -82.75862,63.7931 l -67.24138,-18.96551 z"
       id="path5898"
       inkscape:connector-curvature="0"
       sodipodi:nodetypes="csssscc" />
    <path
       style="fill:#ffffff;fill-rule:evenodd;stroke:#000000;stroke-width:3;stroke-linecap:butt;stroke-linejoin:miter;stroke-miterlimit:4;stroke-dasharray:none;stroke-opacity:1"
       d="m -560.3457,878.22461 -8.17969,16.35937 c 5.10178,2.99842 11.35024,4.75951 17.80273,5.28907 l -9.62304,-21.64844 z"
       id="path5919"
       inkscape:connector-curvature="0" />
    <path
       style="fill:#ffffff;fill-rule:evenodd;stroke:#000000;stroke-width:3;stroke-linecap:butt;stroke-linejoin:miter;stroke-miterlimit:4;stroke-dasharray:none;stroke-opacity:1"
       d="m -466.85352,881.11328 -7.6289,15.25977 c 4.76103,3.48029 10.87072,5.68353 17.34765,6.60937 l -9.71875,-21.86914 z"
       id="path5938"
       inkscape:connector-curvature="0" />
    <path
       style="fill:#ffffff;fill-rule:evenodd;stroke:#000000;stroke-width:3;stroke-linecap:butt;stroke-linejoin:miter;stroke-miterlimit:4;stroke-dasharray:none;stroke-opacity:1"
       d="m -441.5,882.52344 -10.46875,20.93359 c 6.37715,0.24523 12.84239,-0.71035 18.50586,-2.85156 L -441.5,882.52344 Z"
       id="path5941"
       inkscape:connector-curvature="0" />
    <path
       style="fill:#ffffff;fill-rule:evenodd;stroke:#000000;stroke-width:3;stroke-linecap:butt;stroke-linejoin:miter;stroke-miterlimit:4;stroke-dasharray:none;stroke-opacity:1"
       d="m -541.5,882.52344 -8.69531,17.38867 c 5.32812,0.38118 10.7734,-0.0801 15.8125,-1.37695 L -541.5,882.52344 Z"
       id="path5943"
       inkscape:connector-curvature="0" />
  </g>
</svg>
