<svg id="Layer_1" data-name="Layer 1" xmlns="http://www.w3.org/2000/svg" viewBox="0 0 500 500">
  <defs>
    <style>
      .cls-1 {
        fill: #e0f0ff;
      }
    </style>
  </defs>
  <path class="cls-1" d="M23.19,144.75l-.21.47-.08.16.59-1.25Z" />
  <path class="cls-1" d="M52.35,96.93c-.06.09-.14.18-.21.27l-.11.15.5-.64Z" />
  <path class="cls-1" d="M231.52.68,230,.8l-.59,0c1.37-.11,2.75-.2,4.13-.29Z" />
  <path class="cls-1" d="M224.86,1.26l-.66.06-.87.1c1.43-.15,2.86-.28,4.3-.41Z" />
  <path class="cls-1" d="M219,1.92l-1.63.2q2.28-.29,4.56-.54Z" />
  <path class="cls-1" d="M138.69,26.12l1.11-.55Z" />
  <path class="cls-1" d="M250,0h1.15Z" />
  <path class="cls-1"
    d="M212.72,2.77,211.31,3c-1.54.24-3.07.49-4.6.76l-.64.11c3.54-.62,7.12-1.18,10.71-1.66C215.43,2.38,214.07,2.57,212.72,2.77Z" />
  <path class="cls-1" d="M134.21,28.4l-.13.07c-.24.12-.48.26-.72.39l1.31-.7Z" />
  <path class="cls-1" d="M237.27.32h-.16l-1.67.11c1.58-.09,3.17-.16,4.75-.23Z" />
  <path class="cls-1" d="M244.27.08l-1.45,0-.47,0c1.21,0,2.42,0,3.63-.08C245.41.06,244.84.06,244.27.08Z" />
  <path class="cls-1" d="M21.38,148.73l-.09.2c-.08.18-.15.37-.23.55.29-.67.59-1.34.89-2Z" />
  <path class="cls-1" d="M182.81,9.15l-2.66.76-1.35.4c1.38-.41,2.76-.81,4.15-1.2Z" />
  <path class="cls-1" d="M159.85,16.77l-2.22.88c1.08-.43,2.16-.86,3.24-1.27Z" />
  <path class="cls-1"
    d="M500,250c0-1.92,0-3.83-.08-5.73l0-1.45c-.06-1.86-.12-3.71-.21-5.55a.86.86,0,0,1,0-.16c-.1-1.87-.22-3.73-.35-5.59L499.2,230c-.14-1.71-.29-3.42-.46-5.12l-.06-.66c-.18-1.74-.38-3.47-.6-5.2-.07-.58-.14-1.16-.22-1.74-.2-1.52-.41-3-.63-4.54-.07-.47-.14-.94-.22-1.41-.24-1.54-.49-3.07-.76-4.6l-.36-2c-.24-1.29-.48-2.58-.74-3.86l-.48-2.36q-.41-1.92-.84-3.84c-.17-.78-.35-1.55-.53-2.32-.25-1-.51-2.08-.76-3.12s-.59-2.3-.89-3.45c-.26-1-.53-2-.8-2.94s-.5-1.78-.76-2.66-.46-1.57-.7-2.35c-.46-1.54-.94-3.08-1.43-4.6-.22-.67-.43-1.33-.65-2-.33-1-.67-2-1-3-.19-.54-.38-1.09-.58-1.63q-1-2.86-2.09-5.69c-.13-.35-.26-.7-.4-1.05-.42-1.1-.86-2.2-1.3-3.29-.13-.33-.27-.65-.4-1q-1.36-3.35-2.82-6.65l-.09-.2c-.53-1.18-1.06-2.35-1.6-3.51l-.21-.47q-2.49-5.34-5.21-10.54a.83.83,0,0,0-.07-.13c-.83-1.59-1.69-3.17-2.55-4.74-.25-.45-.51-.9-.76-1.36l0,0A255.11,255.11,0,0,1,500,251.59Z" />
  <path class="cls-1" d="M155.58,18.47h0l.08,0Z" />
  <path class="cls-1" d="M171.21,12.69l-3,1-.46.16q2-.69,4-1.35Z" />
  <path class="cls-1" d="M31,129.34v0l.14-.25Z" />
  <path class="cls-1" d="M148.93,21.29l-.2.09-1.25.57,2-.89Z" />
  <path class="cls-1" d="M28.47,134.08a.83.83,0,0,0-.07.13l-.24.46.7-1.31C28.73,133.6,28.59,133.84,28.47,134.08Z" />
  <path class="cls-1" d="M198.48,5.33c-1.26.26-2.53.54-3.78.82,1.6-.36,3.21-.7,4.83-1Z" />
  <path class="cls-1" d="M34.5,123.25c-.07.11-.14.22-.2.33l-.39.68.66-1.13Z" />
  <path class="cls-1" d="M204.7,4.11c-1.29.24-2.58.48-3.86.74l-.33.07c1.63-.33,3.27-.64,4.91-.94Z" />
  <path class="cls-1" d="M185.75,8.35l-1.43.39c1-.28,2.05-.54,3.08-.81Z" />
  <path class="cls-1" d="M25.57,139.79c.18-.36.36-.73.55-1.09C25.93,139.06,25.75,139.43,25.57,139.79Z" />
  <path class="cls-1" d="M192.32,6.7l-2.6.64c1.43-.35,2.85-.7,4.28-1Z" />
  <path class="cls-1" d="M145.22,23l-.48.22-.62.29,1.26-.59Z" />
  <path class="cls-1" d="M109.68,43.1l-.12.08.45-.31Z" />
  <path class="cls-1"
    d="M.33,237.11a.86.86,0,0,1,0,.16c0,1-.07,1.95-.11,2.92.07-1.58.14-3.16.23-4.75C.4,236,.36,236.55.33,237.11Z" />
  <path class="cls-1" d="M91.07,57l-.31.26.6-.49Z" />
  <path class="cls-1" d="M.8,230l-.12,1.54-.12,2c.09-1.38.18-2.76.29-4.13C.84,229.59.82,229.78.8,230Z" />
  <path class="cls-1"
    d="M.11,242.82l0,1.45c0,.57,0,1.14,0,1.71,0-1.21,0-2.42.08-3.63C.13,242.51.12,242.66.11,242.82Z" />
  <path class="cls-1" d="M123.58,34.3h0l-.45.27,1.13-.66Z" />
  <path class="cls-1"
    d="M1.32,224.2l-.06.66c-.09.91-.17,1.84-.25,2.76.13-1.43.26-2.87.41-4.29C1.39,223.62,1.35,223.91,1.32,224.2Z" />
  <path class="cls-1" d="M67.28,79.42h0l.09-.1Z" />
  <path class="cls-1" d="M79.37,67.32l-.62.58-.17.16.84-.78Z" />
  <path class="cls-1"
    d="M134.08,471.53l.13.07q5.21,2.73,10.53,5.2l.48.22c1.16.54,2.33,1.07,3.51,1.6l.2.09q3.3,1.46,6.65,2.82l1,.4c1.09.44,2.19.88,3.29,1.3l1,.4q2.84,1.08,5.7,2.09l1.63.58,3,1,2,.65q2.3.74,4.6,1.43l2.35.7,2.66.76,2.94.8,3.46.89,3.11.76,2.32.53,3.84.84,2.36.48c1.28.26,2.57.5,3.86.74l2,.36c1.53.27,3.06.52,4.6.76l1.41.22c1.51.22,3,.43,4.54.63l1.74.22c1.73.22,3.46.42,5.2.6l.66.06c1.7.17,3.41.32,5.12.46l1.54.12c1.86.13,3.72.25,5.59.35h.16c1.85.09,3.69.15,5.55.21l1.45,0c1.9.05,3.81.08,5.73.08h1.59A255.11,255.11,0,0,1,128,468.2Q131,469.91,134.08,471.53Z" />
  <path class="cls-1" d="M84.81,62.37l-.06.06.1-.09Z" />
  <path class="cls-1" d="M0,250c0,.38,0,.76,0,1.15,0-.55,0-1.1,0-1.64C0,249.67,0,249.83,0,250Z" />
  <path class="cls-1" d="M57.29,90.77l-.39.47-.09.12.58-.71Z" />
  <path class="cls-1" d="M5.33,198.48l-.21,1.05c.33-1.62.67-3.24,1-4.85C5.87,196,5.6,197.21,5.33,198.48Z" />
  <path class="cls-1" d="M6.7,192.32,6.31,194c.33-1.43.67-2.86,1-4.28C7.12,190.59,6.91,191.45,6.7,192.32Z" />
  <path class="cls-1" d="M18.47,155.58l0,0,0-.08Z" />
  <path class="cls-1" d="M8.35,185.75l-.42,1.65c.26-1,.53-2.06.81-3.08Z" />
  <path class="cls-1" d="M16.77,159.85l-.39,1c.41-1.09.84-2.17,1.27-3.25C17.35,158.37,17.06,159.1,16.77,159.85Z" />
  <path class="cls-1"
    d="M13.7,168.22c-.34,1-.68,2-1,3l-.18.53c.44-1.33.89-2.66,1.35-4C13.81,167.91,13.76,168.07,13.7,168.22Z" />
  <path class="cls-1"
    d="M9.91,180.15c-.26.88-.51,1.77-.76,2.66a1,1,0,0,1,0,.14q.59-2.08,1.2-4.14C10.17,179.25,10,179.7,9.91,180.15Z" />
  <path class="cls-1" d="M1.92,219c-.12,1-.23,2-.34,2.94.17-1.52.35-3.05.54-4.56C2.05,217.92,2,218.46,1.92,219Z" />
  <path class="cls-1"
    d="M3.75,206.71c-.27,1.53-.52,3.06-.76,4.6-.08.47-.15.94-.22,1.41-.2,1.35-.38,2.7-.56,4.05.47-3.59,1-7.16,1.65-10.71C3.83,206.28,3.79,206.49,3.75,206.71Z" />
  <path class="cls-1" d="M128.11,31.71l1.26-.7Z" />
  <path class="cls-1"
    d="M4.85,200.84c-.26,1.28-.5,2.57-.74,3.86,0,.24-.09.48-.13.72.3-1.64.61-3.28.94-4.91C4.89,200.62,4.87,200.73,4.85,200.84Z" />
  <path class="cls-1" d="M52.53,96.71c1.4-1.8,2.83-3.59,4.28-5.35C55.36,93.12,53.93,94.91,52.53,96.71Z" />
  <path class="cls-1" d="M8.74,184.32c.12-.46.25-.92.37-1.37C9,183.4,8.87,183.86,8.74,184.32Z" />
  <path class="cls-1" d="M.13,242.35c0-.72.06-1.44.08-2.16C.18,240.91.15,241.63.13,242.35Z" />
  <path class="cls-1" d="M.47,234.78c0,.22,0,.44,0,.66,0-.64.08-1.28.12-1.92C.53,233.94.49,234.36.47,234.78Z" />
  <path class="cls-1" d="M.85,229.39c.05-.59.11-1.18.16-1.77C1,228.21.9,228.8.85,229.39Z" />
  <path class="cls-1" d="M252.2,500h0Z" />
  <path class="cls-1" d="M0,249.51c0-1.18,0-2.36,0-3.53C0,247.15,0,248.33,0,249.51Z" />
  <path class="cls-1" d="M28.86,133.36q1-2,2.15-4Q29.92,131.35,28.86,133.36Z" />
  <path class="cls-1" d="M1.42,223.33c.05-.47.11-.93.16-1.39C1.53,222.4,1.47,222.86,1.42,223.33Z" />
  <path class="cls-1" d="M23.49,144.13c.68-1.46,1.37-2.9,2.08-4.34C24.86,141.23,24.17,142.67,23.49,144.13Z" />
  <path class="cls-1" d="M22,147.48c.32-.7.63-1.41.95-2.1C22.58,146.07,22.27,146.78,22,147.48Z" />
  <path class="cls-1" d="M26.12,138.7q1-2,2-4Q27.13,136.68,26.12,138.7Z" />
  <path class="cls-1" d="M3.86,206.06l.12-.64Z" />
  <path class="cls-1" d="M18.48,155.54q1.26-3,2.58-6.06Q19.74,152.5,18.48,155.54Z" />
  <path class="cls-1" d="M4.92,200.51c.06-.33.13-.65.2-1C5.05,199.86,5,200.18,4.92,200.51Z" />
  <path class="cls-1" d="M500,252.2v0Z" />
  <path class="cls-1" d="M166.59,14.28l1.17-.42q-3.47,1.21-6.89,2.52h0Q163.73,15.29,166.59,14.28Z" />
  <path class="cls-1"
    d="M38.77,116.27q1.84-2.91,3.78-5.78l.66-1c1.32-1.93,2.65-3.84,4-5.73l.55-.75q2.09-2.88,4.25-5.68a251.8,251.8,0,0,0-17.46,25.78c1.16-2,2.35-3.91,3.56-5.83C38.34,117,38.55,116.61,38.77,116.27Z" />
  <path class="cls-1" d="M62.61,84.55q2.3-2.6,4.67-5.13-5.12,5.47-9.89,11.23,2.23-2.69,4.54-5.32Z" />
  <path class="cls-1"
    d="M33.81,124.43l.1-.17c-.94,1.6-1.86,3.23-2.76,4.86l.63-1.14C32.45,126.79,33.13,125.61,33.81,124.43Z" />
  <path class="cls-1"
    d="M97.47,51.94c1.83-1.41,3.69-2.8,5.56-4.16l1-.7c1.84-1.32,3.69-2.62,5.57-3.9q-9.42,6.41-18.2,13.63c1.74-1.43,3.49-2.83,5.27-4.21Z" />
  <path class="cls-1" d="M157.63,17.65l-2,.8.94-.38Z" />
  <path class="cls-1"
    d="M116.53,38.6l.66-.41q2.94-1.84,5.94-3.62-6.7,4-13.12,8.3l.58-.39C112.56,41.16,114.53,39.86,116.53,38.6Z" />
  <path class="cls-1" d="M90.54,57.49l.22-.19q-3,2.48-5.91,5l.1-.08Q87.71,59.83,90.54,57.49Z" />
  <path class="cls-1" d="M18.45,155.62c-.27.66-.54,1.34-.8,2l.42-1.07C18.2,156.25,18.33,155.93,18.45,155.62Z" />
  <path class="cls-1"
    d="M72.9,73.59l.8-.8c1.61-1.6,3.23-3.18,4.88-4.73q-5.77,5.44-11.21,11.26l.72-.77Q70.46,76,72.9,73.59Z" />
  <path class="cls-1"
    d="M123.58,465.7h0c-2.31-1.35-4.58-2.74-6.84-4.16a251.46,251.46,0,0,1-78.28-78.28c-1.42-2.26-2.81-4.53-4.16-6.84h0q-3-5.18-5.83-10.5a.83.83,0,0,1-.07-.13q-2.73-5.21-5.2-10.53c-.08-.16-.15-.32-.22-.48-.54-1.16-1.07-2.33-1.6-3.51l-.09-.2q-1.45-3.3-2.82-6.65c-.13-.33-.27-.65-.4-1-.44-1.09-.88-2.19-1.3-3.29-.14-.34-.27-.69-.4-1q-1.08-2.83-2.09-5.7c-.2-.54-.39-1.09-.58-1.63-.34-1-.68-2-1-3-.22-.66-.43-1.32-.65-2q-.73-2.3-1.43-4.6c-.24-.78-.47-1.56-.7-2.35s-.51-1.77-.76-2.66-.54-2-.8-2.94c-.3-1.15-.6-2.3-.89-3.46s-.51-2.07-.76-3.11c-.18-.77-.36-1.54-.53-2.32q-.44-1.92-.84-3.84l-.48-2.36c-.26-1.28-.5-2.57-.74-3.86l-.36-2c-.27-1.53-.52-3.06-.76-4.6-.08-.47-.15-.94-.22-1.41-.22-1.51-.43-3-.63-4.54-.08-.58-.15-1.16-.22-1.74-.22-1.73-.42-3.46-.6-5.2l-.06-.66c-.17-1.7-.32-3.41-.46-5.12l-.12-1.54c-.13-1.86-.25-3.72-.35-5.59a.86.86,0,0,0,0-.16c-.09-1.85-.15-3.69-.21-5.55l0-1.45c0-1.52,0-3-.06-4.58A247.82,247.82,0,0,0,128,468.2q-2.2-1.23-4.38-2.5Z" />
  <path class="cls-1" d="M16.37,160.9v0q-1.3,3.42-2.52,6.88l.42-1.17Q15.29,163.73,16.37,160.9Z" />
  <path class="cls-1" d="M2.21,216.77l-.09.61,0-.12C2.16,217.1,2.18,216.93,2.21,216.77Z" />
  <path class="cls-1" d="M7.93,187.4c-.2.77-.4,1.55-.59,2.33l.12-.53C7.62,188.6,7.77,188,7.93,187.4Z" />
  <path class="cls-1"
    d="M12,173.2c.16-.49.32-1,.47-1.46q-1.15,3.51-2.2,7.07l.3-1C11.07,176.26,11.55,174.72,12,173.2Z" />
  <path class="cls-1" d="M6.31,194l-.15.67v0C6.21,194.43,6.26,194.22,6.31,194Z" />
  <path class="cls-1" d="M134.67,28.16q2-1,4-2Q136.68,27.13,134.67,28.16Z" />
  <path class="cls-1" d="M183,9.11l1.37-.37Z" />
  <path class="cls-1" d="M149.48,21.06q3-1.32,6.06-2.58Q152.5,19.74,149.48,21.06Z" />
  <path class="cls-1" d="M199.53,5.12l1-.2Z" />
  <path class="cls-1" d="M145.38,22.9l2.1-.95Z" />
  <path class="cls-1" d="M205.42,4l.65-.12Z" />
  <path class="cls-1" d="M124.26,33.91c1.27-.74,2.56-1.48,3.85-2.2C126.82,32.43,125.53,33.17,124.26,33.91Z" />
  <path class="cls-1" d="M129.37,31c1.33-.73,2.65-1.45,4-2.15C132,29.56,130.7,30.28,129.37,31Z" />
  <path class="cls-1" d="M177.8,10.61l1-.3q-3.56,1-7.05,2.2L173.2,12Q175.5,11.31,177.8,10.61Z" />
  <path class="cls-1" d="M79.42,67.28q2.63-2.46,5.33-4.85Q82.05,64.82,79.42,67.28Z" />
  <path class="cls-1" d="M139.8,25.57q2.14-1.07,4.32-2.08Q141.95,24.51,139.8,25.57Z" />
  <path class="cls-1" d="M194.7,6.15l-.7.16.64-.14Z" />
  <path class="cls-1" d="M221.93,1.58l1.4-.16Z" />
  <path class="cls-1" d="M217.37,2.12l-.59.08.48-.06Z" />
  <path class="cls-1" d="M189.72,7.34l-2.32.59,1.81-.47Z" />
  <path class="cls-1"
    d="M257.18.11c1.86.06,3.7.12,5.55.21h.16c1.87.1,3.73.22,5.59.35L270,.8c1.71.14,3.42.29,5.12.46l.66.06c1.74.18,3.47.38,5.2.6l1.74.22c1.52.2,3,.41,4.54.63l1.41.22c1.54.24,3.07.49,4.6.76l2,.36c1.29.24,2.58.48,3.86.74l2.36.48q1.92.4,3.84.84l2.32.53,3.11.76,3.46.89,2.94.8,2.66.76,2.35.7q2.31.69,4.6,1.43l2,.65,3,1,1.63.58q2.86,1,5.7,2.09l1,.4c1.1.42,2.2.86,3.29,1.3l1,.4q3.34,1.37,6.65,2.82l.2.09c1.18.53,2.35,1.06,3.51,1.6l.48.22q5.33,2.48,10.53,5.2l.13.07q5.32,2.79,10.5,5.83h0q3.22,1.89,6.39,3.89l.66.41c2,1.26,4,2.56,5.94,3.88l.91.62c1.92,1.3,3.81,2.63,5.69,4l1,.7c1.87,1.36,3.73,2.75,5.56,4.16l.84.66c1.88,1.46,3.73,2.93,5.56,4.44l.53.45q2.84,2.34,5.59,4.77l.14.11q2.74,2.43,5.44,4.95l.62.58c1.71,1.6,3.39,3.24,5.05,4.89l.8.8q2.44,2.44,4.81,5l.81.87q2.37,2.53,4.67,5.13l.68.78c1.57,1.8,3.12,3.6,4.64,5.44l.39.47c1.54,1.88,3.06,3.77,4.55,5.69.06.09.14.18.21.27q2.22,2.88,4.36,5.83l.55.75c1.37,1.89,2.7,3.8,4,5.73l.66,1q1.94,2.87,3.78,5.78c.22.34.43.68.64,1,1.24,2,2.45,4,3.63,6,.07.11.14.22.2.33.17.28.32.57.49.85.68,1.17,1.35,2.34,2,3.53A247.81,247.81,0,0,0,251.15,0c1.53,0,3.06,0,4.58.06Z" />
  <path class="cls-1" d="M234.78.47l-1.26.09,1.92-.12Z" />
  <path class="cls-1" d="M227.63,1l1.76-.16Z" />
  <path class="cls-1" d="M246,.05c1.17,0,2.35,0,3.52,0C248.33,0,247.16,0,246,.05Z" />
  <path class="cls-1" d="M240.19.21l2.16-.08Z" />
  <path class="cls-1"
    d="M468.2,128c-.66-1.19-1.33-2.36-2-3.53-.17-.28-.32-.57-.49-.85-.06-.11-.13-.22-.2-.33-1.18-2-2.39-4-3.63-6-.21-.35-.42-.69-.64-1q-1.85-2.91-3.78-5.78l-.66-1c-1.32-1.93-2.65-3.84-4-5.73l-.55-.75q-2.14-3-4.36-5.83c-.07-.09-.15-.18-.21-.27-1.49-1.92-3-3.81-4.55-5.69l-.39-.47c-1.52-1.84-3.07-3.64-4.64-5.44l-.68-.78q-2.29-2.6-4.67-5.13l-.81-.87q-2.37-2.52-4.81-5l-.8-.8c-1.66-1.65-3.34-3.29-5.05-4.89l-.62-.58q-2.7-2.52-5.44-4.95l-.14-.11q-2.76-2.43-5.59-4.77l-.53-.45c-1.83-1.51-3.68-3-5.56-4.44l-.84-.66c-1.83-1.41-3.69-2.8-5.56-4.16l-1-.7c-1.88-1.35-3.77-2.68-5.69-4l-.91-.62c-2-1.32-3.94-2.62-5.94-3.88l-.66-.41q-3.17-2-6.39-3.89h0q-5.18-3-10.5-5.83l-.13-.07q-5.21-2.73-10.53-5.2l-.48-.22c-1.16-.54-2.33-1.07-3.51-1.6l-.2-.09q-3.3-1.45-6.65-2.82l-1-.4c-1.09-.44-2.19-.88-3.29-1.3l-1-.4q-2.83-1.08-5.7-2.09l-1.63-.58-3-1-2-.65q-2.3-.73-4.6-1.43l-2.35-.7-2.66-.76-2.94-.8-3.46-.89-3.11-.76-2.32-.53q-1.92-.44-3.84-.84l-2.36-.48c-1.28-.26-2.57-.5-3.86-.74l-2-.36c-1.53-.27-3.06-.52-4.6-.76l-1.41-.22c-1.51-.22-3-.43-4.54-.63L281,1.92c-1.73-.22-3.46-.42-5.2-.6l-.66-.06c-1.7-.17-3.41-.32-5.12-.46L268.48.68c-1.86-.13-3.72-.25-5.59-.35h-.16C260.88.23,259,.17,257.18.11l-1.45,0c-1.52,0-3,0-4.58-.06H249.5c-1.17,0-2.35,0-3.52,0s-2.42,0-3.63.08l-2.16.08c-1.58.07-3.17.14-4.75.23l-1.92.12c-1.38.09-2.76.18-4.13.29L227.63,1c-1.44.13-2.87.26-4.3.41l-1.4.16q-2.28.25-4.56.54l-.11,0-.48.06c-3.59.48-7.17,1-10.71,1.66l-.65.12c-1.64.3-3.28.61-4.91.94l-1,.2c-1.62.33-3.23.67-4.83,1l-.06,0-.64.14c-1.43.33-2.85.68-4.28,1l-.51.12-1.81.47c-1,.27-2.06.53-3.08.81L183,9.11c-1.39.39-2.77.79-4.15,1.2l-1,.3q-2.31.69-4.6,1.43l-1.45.47q-2,.66-4,1.35l-1.17.42q-2.86,1-5.7,2.09h0c-1.08.41-2.16.84-3.24,1.27l-1.07.42-.94.38-.08,0q-3,1.26-6.06,2.58l-2,.89-2.1.95-1.26.59q-2.18,1-4.32,2.08l-1.11.55q-2,1-4,2l-1.31.7c-1.34.7-2.66,1.42-4,2.15l-1.26.7c-1.29.72-2.58,1.46-3.85,2.2l-1.13.66q-3,1.77-5.94,3.62l-.66.41c-2,1.26-4,2.56-5.94,3.88l-.58.39-.45.31c-1.88,1.28-3.73,2.58-5.57,3.9l-1,.7c-1.87,1.36-3.73,2.75-5.56,4.16l-.84.66c-1.78,1.38-3.53,2.78-5.27,4.21l-.6.49-.22.19Q87.71,59.83,85,62.26l-.1.08-.1.09q-2.7,2.38-5.33,4.85l-.84.78c-1.65,1.55-3.27,3.13-4.88,4.73l-.8.8q-2.45,2.44-4.81,5l-.72.77-.09.1Q64.91,82,62.61,84.55l-.68.78Q59.62,88,57.39,90.65l-.58.71c-1.45,1.76-2.88,3.55-4.28,5.35l-.5.64q-2.16,2.81-4.25,5.68l-.55.75c-1.37,1.89-2.7,3.8-4,5.73l-.66,1q-1.94,2.87-3.78,5.78c-.22.34-.43.68-.64,1-1.21,1.92-2.4,3.87-3.56,5.83l-.66,1.13-.1.17c-.68,1.18-1.36,2.36-2,3.55l-.63,1.14-.14.25q-1.1,2-2.15,4l-.7,1.31q-1,2-2,4c-.19.36-.37.73-.55,1.09-.71,1.44-1.4,2.88-2.08,4.34l-.59,1.25c-.32.69-.63,1.4-.95,2.1s-.6,1.33-.89,2q-1.32,3-2.58,6.06l0,.08c-.12.31-.25.63-.38.94l-.42,1.07c-.43,1.08-.86,2.16-1.27,3.25v0q-1.08,2.82-2.09,5.69l-.42,1.17c-.46,1.32-.91,2.65-1.35,4-.15.49-.31,1-.47,1.46-.49,1.52-1,3.06-1.43,4.6l-.3,1q-.62,2.06-1.2,4.14c-.12.45-.25.91-.37,1.37-.28,1-.55,2.05-.81,3.08-.16.6-.31,1.2-.47,1.8l-.12.53c-.36,1.42-.7,2.85-1,4.28,0,.21-.1.42-.14.63v0c-.37,1.61-.71,3.23-1,4.85-.07.33-.14.65-.2,1-.33,1.63-.64,3.27-.94,4.91l-.12.64c-.62,3.55-1.18,7.12-1.65,10.71,0,.16,0,.33-.07.49l0,.12c-.19,1.51-.37,3-.54,4.56-.05.46-.11.92-.16,1.39-.15,1.42-.28,2.86-.41,4.29-.05.59-.11,1.18-.16,1.77-.11,1.37-.2,2.75-.29,4.13,0,.64-.09,1.28-.12,1.92-.09,1.59-.16,3.17-.23,4.75,0,.72-.06,1.44-.08,2.16,0,1.21,0,2.42-.08,3.63s0,2.35,0,3.53c0,.54,0,1.09,0,1.64,0,1.53,0,3.06.06,4.58l0,1.45c.06,1.86.12,3.7.21,5.55a.86.86,0,0,1,0,.16c.1,1.87.22,3.73.35,5.59L.8,270c.14,1.71.29,3.42.46,5.12l.06.66c.18,1.74.38,3.47.6,5.2.07.58.14,1.16.22,1.74.2,1.52.41,3,.63,4.54.07.47.14.94.22,1.41.24,1.54.49,3.07.76,4.6l.36,2c.24,1.29.48,2.58.74,3.86l.48,2.36q.4,1.92.84,3.84c.17.78.35,1.55.53,2.32.25,1,.5,2.08.76,3.11s.59,2.31.89,3.46c.26,1,.53,2,.8,2.94s.5,1.78.76,2.66.46,1.57.7,2.35q.69,2.31,1.43,4.6c.22.67.43,1.33.65,2,.33,1,.67,2,1,3,.19.54.38,1.09.58,1.63q1,2.86,2.09,5.7c.13.35.26.7.4,1,.42,1.1.86,2.2,1.3,3.29.13.33.27.65.4,1q1.37,3.34,2.82,6.65l.09.2c.53,1.18,1.06,2.35,1.6,3.51.07.16.14.32.22.48q2.48,5.33,5.2,10.53a.83.83,0,0,0,.07.13q2.79,5.32,5.83,10.5h0c1.35,2.31,2.74,4.58,4.16,6.84a251.46,251.46,0,0,0,78.28,78.28c2.26,1.42,4.53,2.81,6.84,4.16h0q2.17,1.28,4.38,2.5A255.11,255.11,0,0,0,251.59,500H420.31A80,80,0,0,0,500,420.31V251.59A255.11,255.11,0,0,0,468.2,128ZM165.07,395.43H99.91V200.63h65.16ZM132.49,174h-.42c-21.87,0-36-15-36-33.65,0-19.12,14.57-33.66,36.86-33.66s36,14.54,36.44,33.66C169.36,159.07,155.21,174,132.49,174ZM400,395.43H334.87V291.21c0-26.18-9.43-44-33-44-18,0-28.72,12-33.43,23.68-1.72,4.16-2.15,10-2.15,15.8V395.43H201.13s.85-176.53,0-194.8h65.16v27.59c8.65-13.28,24.13-32.17,58.72-32.17,42.87,0,75,27.85,75,87.68Z" />
</svg>